<?xml version="1.0" encoding="UTF-8" standalone="no"?>
<!-- Created with Inkscape (http://www.inkscape.org/) -->

<svg
   xmlns:osb="http://www.openswatchbook.org/uri/2009/osb"
   xmlns:dc="http://purl.org/dc/elements/1.1/"
   xmlns:cc="http://creativecommons.org/ns#"
   xmlns:rdf="http://www.w3.org/1999/02/22-rdf-syntax-ns#"
   xmlns:svg="http://www.w3.org/2000/svg"
   xmlns="http://www.w3.org/2000/svg"
   xmlns:xlink="http://www.w3.org/1999/xlink"
   xmlns:sodipodi="http://sodipodi.sourceforge.net/DTD/sodipodi-0.dtd"
   xmlns:inkscape="http://www.inkscape.org/namespaces/inkscape"
   width="744.09448819"
   height="1052.3622047"
   id="svg2"
   version="1.1"
   inkscape:version="0.48.1 r9760"
   sodipodi:docname="fleetingpm.svg">
  <defs
     id="defs4">
    <linearGradient
       id="linearGradient6199">
      <stop
         style="stop-color:#e3dedb;stop-opacity:1;"
         offset="0"
         id="stop6201" />
      <stop
         style="stop-color:#e3dedb;stop-opacity:0;"
         offset="1"
         id="stop6203" />
    </linearGradient>
    <linearGradient
       id="linearGradient6157"
       osb:paint="gradient">
      <stop
         style="stop-color:#808080;stop-opacity:1;"
         offset="0"
         id="stop6159" />
      <stop
         style="stop-color:#808080;stop-opacity:0;"
         offset="1"
         id="stop6161" />
    </linearGradient>
    <linearGradient
       id="linearGradient5593">
      <stop
         style="stop-color:#000000;stop-opacity:1;"
         offset="0"
         id="stop5595" />
      <stop
         style="stop-color:#000000;stop-opacity:0;"
         offset="1"
         id="stop5597" />
    </linearGradient>
    <linearGradient
       inkscape:collect="always"
       id="linearGradient5581"
       osb:paint="gradient">
      <stop
         style="stop-color:#000000;stop-opacity:1;"
         offset="0"
         id="stop5583" />
      <stop
         style="stop-color:#000000;stop-opacity:0;"
         offset="1"
         id="stop5585" />
    </linearGradient>
    <filter
       id="filter3784"
       inkscape:label="Flex metal"
       inkscape:menu="Materials"
       inkscape:menu-tooltip="Bright, polished uneven metal casting, colorizable"
       height="1.5"
       y="-0.25"
       width="1.5"
       x="-0.25"
       color-interpolation-filters="sRGB">
      <feGaussianBlur
         id="feGaussianBlur3786"
         stdDeviation="5"
         result="result8" />
      <feTurbulence
         id="feTurbulence3788"
         seed="25"
         result="result7"
         type="turbulence"
         numOctaves="2"
         baseFrequency="0.03" />
      <feComposite
         id="feComposite3790"
         in2="result8"
         result="result6"
         operator="in"
         in="result8" />
      <feDisplacementMap
         id="feDisplacementMap3792"
         in2="result6"
         in="result7"
         xChannelSelector="A"
         yChannelSelector="A"
         scale="120"
         result="result4" />
      <feComposite
         id="feComposite3794"
         in2="result4"
         result="result2"
         operator="arithmetic"
         in="SourceGraphic"
         k1="2"
         k3="2.5"
         k2="0.25" />
      <feComposite
         id="feComposite3796"
         in2="SourceGraphic"
         result="fbSourceGraphic"
         in="result2"
         operator="in" />
      <feBlend
         id="feBlend3798"
         in2="fbSourceGraphic"
         mode="screen"
         result="result91" />
      <feBlend
         id="feBlend3800"
         in2="result91"
         mode="multiply" />
    </filter>
    <filter
       id="filter5623"
       inkscape:label="Fancy blur"
       inkscape:menu="Blurs"
       inkscape:menu-tooltip="Smooth colorized contour which allows desaturation and hue rotation"
       color-interpolation-filters="sRGB">
      <feGaussianBlur
         id="feGaussianBlur5625"
         stdDeviation="5"
         result="result1" />
      <feComposite
         id="feComposite5627"
         in2="result1"
         operator="arithmetic"
         k2="2"
         in="result1" />
    </filter>
    <filter
       id="filter6051"
       x="-0.25"
       width="1.5"
       y="-0.25"
       height="1.5"
       inkscape:menu="Non realistic 3D shaders"
       inkscape:menu-tooltip="Non realistic chrome shader with strong speculars"
       inkscape:label="Chrome"
       color-interpolation-filters="sRGB">
      <feGaussianBlur
         id="feGaussianBlur6053"
         result="result8"
         stdDeviation="4" />
      <feComposite
         id="feComposite6055"
         in2="result8"
         in="result8"
         operator="xor"
         result="result6" />
      <feDisplacementMap
         id="feDisplacementMap6057"
         in2="result6"
         result="result4"
         scale="80"
         yChannelSelector="A"
         xChannelSelector="A"
         in="result6" />
      <feComposite
         id="feComposite6059"
         in2="result4"
         k1="3"
         in="result8"
         operator="arithmetic"
         result="result2" />
      <feComposite
         id="feComposite6061"
         in2="result2"
         operator="in"
         in="result2"
         result="fbSourceGraphic" />
    </filter>
    <filter
       id="filter6111"
       inkscape:label="Metallized paint"
       inkscape:menu="Materials"
       inkscape:menu-tooltip="Metallized effect with a soft lighting, slightly translucent at the edges"
       height="1.1"
       width="1.1"
       y="-0.05"
       x="-0.05"
       color-interpolation-filters="sRGB">
      <feGaussianBlur
         id="feGaussianBlur6113"
         stdDeviation="1"
         result="result1" />
      <feComposite
         id="feComposite6115"
         in2="result1"
         in="result1"
         result="result4"
         operator="in" />
      <feBlend
         id="feBlend6117"
         in2="result4"
         in="result1"
         mode="screen"
         result="result5" />
      <feGaussianBlur
         id="feGaussianBlur6119"
         stdDeviation="8"
         result="result6"
         in="result5" />
      <feComposite
         id="feComposite6121"
         in2="result5"
         operator="atop"
         in="result6"
         result="result8" />
      <feComposite
         id="feComposite6123"
         in2="result8"
         operator="in"
         result="fbSourceGraphic"
         in="result6" />
      <feGaussianBlur
         id="feGaussianBlur6125"
         result="result0"
         in="fbSourceGraphic"
         stdDeviation="2.5" />
      <feSpecularLighting
         id="feSpecularLighting6127"
         specularExponent="45"
         specularConstant="1.5"
         surfaceScale="1"
         lighting-color="rgb(255,255,255)"
         result="result1"
         in="result0">
        <fePointLight
           id="fePointLight6129"
           z="21000"
           y="-9000"
           x="-6000" />
      </feSpecularLighting>
      <feComposite
         id="feComposite6131"
         in2="fbSourceGraphic"
         operator="in"
         result="result2"
         in="result1" />
      <feComposite
         id="feComposite6133"
         in2="result2"
         k3="1"
         k2="1"
         operator="arithmetic"
         result="result4"
         in="fbSourceGraphic" />
      <feComposite
         id="feComposite6135"
         in2="result4"
         operator="in"
         in="result9"
         result="result91" />
      <feBlend
         id="feBlend6137"
         in2="result91"
         mode="multiply" />
    </filter>
    <linearGradient
       inkscape:collect="always"
       xlink:href="#linearGradient6157-2"
       id="linearGradient6163-9"
       x1="60.150436"
       y1="344.83435"
       x2="149.75378"
       y2="344.83435"
       gradientUnits="userSpaceOnUse" />
    <linearGradient
       id="linearGradient6157-2"
       osb:paint="gradient">
      <stop
         style="stop-color:#808080;stop-opacity:1;"
         offset="0"
         id="stop6159-5" />
      <stop
         style="stop-color:#808080;stop-opacity:0;"
         offset="1"
         id="stop6161-7" />
    </linearGradient>
    <linearGradient
       inkscape:collect="always"
       xlink:href="#linearGradient6199"
       id="linearGradient6205"
       x1="60.254189"
       y1="344.75032"
       x2="149.85754"
       y2="344.75032"
       gradientUnits="userSpaceOnUse"
       gradientTransform="translate(0.07481983,0.2625914)" />
  </defs>
  <sodipodi:namedview
     id="base"
     pagecolor="#ffffff"
     bordercolor="#666666"
     borderopacity="1.0"
     inkscape:pageopacity="0.0"
     inkscape:pageshadow="2"
     inkscape:zoom="5.6"
     inkscape:cx="131.99125"
     inkscape:cy="664.31642"
     inkscape:document-units="px"
     inkscape:current-layer="layer1"
     showgrid="true"
     inkscape:window-width="1680"
     inkscape:window-height="1026"
     inkscape:window-x="0"
     inkscape:window-y="24"
     inkscape:window-maximized="1"
     inkscape:snap-grids="false"
     inkscape:snap-to-guides="false"
     inkscape:snap-global="true">
    <inkscape:grid
       type="xygrid"
       id="grid3804" />
  </sodipodi:namedview>
  <metadata
     id="metadata7">
    <rdf:RDF>
      <cc:Work
         rdf:about="">
        <dc:format>image/svg+xml</dc:format>
        <dc:type
           rdf:resource="http://purl.org/dc/dcmitype/StillImage" />
        <dc:title></dc:title>
      </cc:Work>
    </rdf:RDF>
  </metadata>
  <g
     inkscape:label="Layer 1"
     inkscape:groupmode="layer"
     id="layer1">
    <path
       style="fill:none;stroke:#000000;stroke-width:1px;stroke-linecap:butt;stroke-linejoin:miter;stroke-opacity:1"
       d="M 105.46875 302.84375 L 104.5 302.875 L 100.28125 302.875 L 89.03125 304.625 L 79.8125 307.625 L 74.0625 312.5 L 69.6875 317.46875 L 66.3125 324.0625 L 64.1875 330.65625 L 61.90625 338.5 L 60.34375 347.28125 L 60.09375 386.9375 L 75.1875 386.9375 L 75.25 348.03125 L 76.6875 338.53125 L 79.28125 330.71875 L 82.125 325.6875 L 86.125 321 L 92.59375 318.59375 L 100.25 317.46875 L 104.5 317.4375 L 105.46875 317.4375 L 109.6875 317.46875 L 117.375 318.59375 L 123.84375 321 L 127.84375 325.65625 L 130.6875 330.71875 L 133.28125 338.53125 L 134.6875 348.03125 L 134.75 386.90625 L 149.84375 386.90625 L 149.59375 347.25 L 148.0625 338.5 L 145.78125 330.65625 L 143.625 324.03125 L 140.25 317.46875 L 135.90625 312.46875 L 130.15625 307.625 L 120.9375 304.625 L 109.65625 302.84375 L 105.46875 302.84375 z "
       id="path5878-5"
       inkscape:export-xdpi="29.879999"
       inkscape:export-ydpi="29.879999"
       inkscape:export-filename="/home/jussil/Home/Programming/Projects/fleetingpm/sourceforge-git/fleetingpm/data/icons/fleetingpm.png" />
    <path
       style="fill:none;fill-opacity:1;fill-rule:nonzero;stroke:none;stroke-width:0.12626907000000001;stroke-linecap:square;stroke-linejoin:round;stroke-miterlimit:4;stroke-opacity:1;stroke-dasharray:none"
       d="m 59.704205,382.08632 c 0.0029,-2.93418 0.05703,-12.01135 0.120372,-20.17149 l 0.11517,-14.83661 0.763951,-4.33335 c 0.840613,-4.76819 1.508813,-7.28774 3.991071,-15.04896 1.177341,-3.68116 1.211745,-3.7646 2.92758,-7.10029 l 1.736238,-3.37535 2.146574,-2.46927 c 1.870742,-2.15197 2.494766,-2.76478 4.856269,-4.769 1.490332,-1.26485 2.840157,-2.40355 2.999611,-2.53044 0.159455,-0.12688 2.377767,-0.90925 4.929584,-1.73859 l 4.639668,-1.5079 5.598687,-0.88148 5.59869,-0.88149 2.64037,0 c 2.0228,0 2.6427,0.0369 2.65034,0.15784 0.008,0.12627 0.0227,0.12627 0.0737,0 0.0475,-0.11774 0.61875,-0.15784 2.24826,-0.15784 2.08291,0 2.44333,0.0407 7.74517,0.87436 l 5.56061,0.87436 4.65628,1.52103 4.65627,1.52102 2.91432,2.46489 c 2.59753,2.19696 3.15596,2.74134 5.13733,5.00804 l 2.22301,2.54315 1.70359,3.31864 c 1.65052,3.21527 1.73883,3.42812 2.835,6.83341 0.62227,1.93313 1.62171,5.191 2.22097,7.23971 0.95708,3.27198 1.18264,4.247 1.85491,8.01809 l 0.76534,4.29315 0.0989,12.6269 c 0.0544,6.9448 0.1041,16.02197 0.11042,20.17149 l 0.0115,7.54457 -7.95016,0 -7.95015,0 -0.0432,-19.85581 -0.0432,-19.85581 -0.71175,-4.54568 -0.71174,-4.54569 -1.28657,-3.8366 c -1.25933,-3.75538 -1.31574,-3.8886 -2.66452,-6.29254 -1.26182,-2.24896 -1.53976,-2.64565 -3.29813,-4.70722 l -1.92018,-2.25129 -3.21986,-1.20083 -3.21987,-1.20084 -3.97747,-0.58795 -3.97748,-0.58795 -4.67195,0.0534 -4.671958,0.0534 -3.535534,0.52791 -3.535534,0.52792 -3.202242,1.16499 -3.202243,1.165 -1.98472,2.28703 c -1.877387,2.16336 -2.061357,2.42403 -3.40185,4.82017 -1.392115,2.48842 -1.439325,2.59961 -2.674417,6.29926 l -1.257285,3.76613 -0.6929,4.63805 -0.6929,4.63805 -0.08449,19.82658 -0.08449,19.82658 -7.934045,0 -7.934045,0 0.0052,-5.33486 z m 14.996185,-4.54569 -0.02463,-8.99667 -0.08373,6.43972 c -0.04605,3.54185 -0.09179,7.56194 -0.101636,8.93354 l -0.01791,2.49381 -6.850097,2e-5 -6.850097,2e-5 0.02645,-7.98654 c 0.01454,-4.3926 0.06021,-13.18567 0.10148,-19.54016 l 0.07503,-11.55362 0.313625,-1.8309 c 1.149134,-6.70848 1.930697,-9.75117 4.735409,-18.43528 0.632751,-1.95916 1.028855,-2.88697 2.455535,-5.75167 l 1.701083,-3.41569 1.537683,-1.76134 c 2.124419,-2.43342 3.589543,-3.87037 6.137659,-6.01964 l 2.184205,-1.84232 4.571191,-1.51926 4.57119,-1.51926 5.682108,-0.89252 5.682112,-0.89252 4.48374,9.5e-4 4.48375,9.5e-4 5.61778,0.88151 5.61778,0.8815 4.55617,1.49448 4.55617,1.49447 2.5149,2.15833 c 2.78317,2.38856 3.8745,3.46558 6.00276,5.92404 1.41581,1.63547 1.45891,1.70409 2.97474,4.73509 1.82036,3.63994 2.00082,4.11448 3.81052,10.02037 2.05514,6.70688 2.27792,7.6035 3.2543,13.09731 l 0.58963,3.31767 0.0864,8.52317 0.0864,8.52316 -0.0148,-8.7757 -0.0147,-8.7757 -0.78192,-4.29315 c -0.85163,-4.6759 -1.53652,-7.23642 -3.9685,-14.83662 -1.12395,-3.51245 -1.19195,-3.67732 -2.83843,-6.88166 l -1.68689,-3.283 -2.17659,-2.47858 c -1.86826,-2.12749 -2.54325,-2.78744 -4.7651,-4.65893 -1.42368,-1.19918 -2.67867,-2.25764 -2.78887,-2.35211 -0.11019,-0.0945 -2.21257,-0.82823 -4.67195,-1.63055 l -4.4716,-1.45876 -5.53543,-0.8763 -5.53542,-0.87631 -4.90219,0 -4.90219,0 -5.540052,0.87081 -5.54005,0.8708 -4.533598,1.47997 -4.533598,1.47998 -2.785381,2.35668 c -2.417142,2.04511 -3.071825,2.68294 -4.952051,4.82454 l -2.166669,2.46788 -1.705272,3.33657 c -1.611331,3.15277 -1.76118,3.51047 -2.720178,6.4933 -0.558199,1.7362 -1.531275,4.91818 -2.162393,7.07107 -1.025,3.49651 -1.229041,4.3726 -1.911528,8.20749 l -0.764042,4.29315 -0.107415,13.88959 c -0.05908,7.63928 -0.110764,16.51758 -0.114856,19.72955 l -0.0074,5.83994 7.071068,0 7.071067,0 -0.02463,-8.99667 z m 74.63397,-0.56821 c -0.009,-5.19124 -0.0612,-9.83636 -0.11677,-10.3225 -0.0556,-0.48613 -0.0747,3.73283 -0.0426,9.37548 l 0.0585,10.25936 -6.88654,0 -6.88655,0 -0.0179,-3.31456 c -0.01,-1.82301 -0.0555,-7.63297 -0.10141,-12.91101 l -0.0835,-9.59645 -0.0249,12.97414 -0.0249,12.97415 7.07106,0 7.07107,0 -0.0157,-9.43861 z m -74.494131,-20.01648 0.01106,-9.1889 0.699529,-4.65495 0.699529,-4.65494 1.314947,-3.94037 c 1.300048,-3.89572 1.331049,-3.96921 2.735841,-6.48547 1.345302,-2.40971 1.531449,-2.67408 3.499062,-4.96954 l 2.078171,-2.42442 3.293728,-1.22569 3.293728,-1.22568 3.851206,-0.54802 c 2.118164,-0.30142 4.50465,-0.59598 5.3033,-0.65458 l 1.4521,-0.10655 -1.47553,-0.02 c -1.17926,-0.016 -2.24408,0.0951 -5.303299,0.55361 l -3.827777,0.57364 -3.282996,1.20818 c -3.762604,1.38469 -3.372036,1.11264 -5.858568,4.08078 -1.528304,1.82431 -2.227424,2.87284 -3.706767,5.55933 -0.986099,1.79075 -1.182301,2.27388 -2.307462,5.68195 l -1.229724,3.72479 -0.677202,4.54583 -0.677203,4.54584 -0.05729,10.0384 c -0.03324,5.8241 -0.01155,9.77334 0.05163,9.40704 0.0599,-0.34724 0.113895,-4.76635 0.119979,-9.82025 z m 59.749101,-13.93641 -0.74745,-4.90642 -1.1621,-3.40926 c -1.24976,-3.66643 -1.69287,-4.71438 -2.95856,-6.99708 -1.06484,-1.92046 -1.709,-2.81605 -3.76662,-5.23688 l -1.70517,-2.00617 -3.39117,-1.25124 -3.39116,-1.25124 -4.2409,-0.62219 -4.2409,-0.62219 -2.83017,0.10369 c -1.55659,0.057 -2.36139,0.11242 -1.78844,0.12309 0.89435,0.0167 1.04379,0.0507 1.05636,0.24037 0.0139,0.21045 0.0174,0.21045 0.0724,0 0.0518,-0.19835 0.25386,-0.2207 1.97409,-0.21832 1.63868,0.002 2.51093,0.0918 6.02009,0.61808 l 4.10374,0.61542 3.21986,1.19986 3.21986,1.19985 2.08344,2.41062 c 1.99691,2.3105 2.14435,2.51951 3.54974,5.03217 1.45882,2.60816 1.47285,2.64124 2.74853,6.47932 l 1.28223,3.85777 0.69086,4.60225 c 0.60139,4.00628 0.69105,4.84896 0.6923,6.5073 7.6e-4,1.04777 0.0441,3.63312 0.0962,5.74524 l 0.0947,3.84021 0.0329,-5.57391 0.0329,-5.57391 -0.74745,-4.90643 0,0 z"
       id="path5956"
       inkscape:connector-curvature="0"
       inkscape:export-filename="/home/jussil/Home/Programming/Projects/fleetingpm/sourceforge-git/fleetingpm/data/icons/fleetingpm.png"
       inkscape:export-xdpi="29.879999"
       inkscape:export-ydpi="29.879999" />
    <rect
       style="fill:#008000;fill-opacity:1;fill-rule:nonzero;stroke:#000000;stroke-width:1;stroke-linecap:square;stroke-linejoin:round;stroke-miterlimit:4;stroke-opacity:1;stroke-dasharray:none"
       id="rect6016"
       width="130.43594"
       height="70.205605"
       x="39.901024"
       y="387.17673"
       ry="10.227795"
       inkscape:export-filename="/home/jussil/Home/Programming/Projects/fleetingpm/sourceforge-git/fleetingpm/data/icons/fleetingpm.png"
       inkscape:export-xdpi="29.879999"
       inkscape:export-ydpi="29.879999" />
    <path
       sodipodi:type="arc"
       style="fill:#d3bc5f;fill-opacity:1;fill-rule:nonzero;stroke:#000000;stroke-opacity:1;opacity:1"
       id="path6018"
       sodipodi:cx="29.642857"
       sodipodi:cy="357.27289"
       sodipodi:rx="14.642858"
       sodipodi:ry="14.732142"
       d="m 40.897809,366.69693 a 14.642858,14.732142 0 1 1 0.529908,-0.68023"
       sodipodi:start="0.69409821"
       sodipodi:end="6.91861"
       transform="translate(75.357143,60.357143)"
       sodipodi:open="true"
       inkscape:export-filename="/home/jussil/Home/Programming/Projects/fleetingpm/sourceforge-git/fleetingpm/data/icons/fleetingpm.png"
       inkscape:export-xdpi="29.879999"
       inkscape:export-ydpi="29.879999" />
    <path
       sodipodi:type="arc"
       style="fill:#1a1a1a;fill-opacity:1;fill-rule:nonzero;stroke:none"
       id="path6020"
       sodipodi:cx="25.089285"
       sodipodi:cy="347.45148"
       sodipodi:rx="5.0892859"
       sodipodi:ry="5.2678571"
       d="m 29.001067,350.82129 a 5.0892859,5.2678571 0 1 1 0.184175,-0.24324"
       sodipodi:start="0.69409821"
       sodipodi:end="6.91861"
       sodipodi:open="true"
       transform="translate(80,65)"
       inkscape:export-filename="/home/jussil/Home/Programming/Projects/fleetingpm/sourceforge-git/fleetingpm/data/icons/fleetingpm.png"
       inkscape:export-xdpi="29.879999"
       inkscape:export-ydpi="29.879999" />
    <rect
       style="fill:#1a1a1a;fill-opacity:1;fill-rule:nonzero;stroke:none"
       id="rect6022"
       width="5"
       height="13.035714"
       x="102.67857"
       y="414.50504"
       ry="0"
       inkscape:export-filename="/home/jussil/Home/Programming/Projects/fleetingpm/sourceforge-git/fleetingpm/data/icons/fleetingpm.png"
       inkscape:export-xdpi="29.879999"
       inkscape:export-ydpi="29.879999" />
    <path
       style="fill:#ffffff;fill-opacity:1;fill-rule:nonzero;stroke:none"
       d="m 60.406559,378.59327 c 0.04265,-4.59152 0.115207,-13.41072 0.161239,-19.59822 l 0.08369,-11.25 0.726971,-4.10714 c 0.754292,-4.2615 1.930955,-8.66119 4.137117,-15.46918 0.861451,-2.65836 1.409911,-3.96689 2.731187,-6.51615 1.539729,-2.97074 1.799083,-3.35573 3.77624,-5.60545 1.410041,-1.60442 3.070722,-3.21951 4.945228,-4.80948 l 2.822266,-2.39386 4.524262,-1.475 c 4.478355,-1.46003 4.582588,-1.48418 10.272259,-2.37973 l 5.748002,-0.90472 4.38478,0 4.38478,0 5.67982,0.9005 c 5.59831,0.88758 5.74497,0.92173 10.22062,2.38004 l 4.5408,1.47954 2.80941,2.37852 c 1.88056,1.59214 3.51493,3.18158 4.94333,4.80746 2.04806,2.33122 2.20247,2.56495 3.83815,5.8096 1.35061,2.67918 1.9386,4.10575 2.83365,6.875 2.23633,6.9191 3.12732,10.28227 3.92982,14.83362 l 0.7714,4.375 0.13039,19.50893 0.13039,19.50893 -6.99141,0 -6.99141,0 0,-19.16976 0,-19.16977 -0.71399,-4.80704 c -0.69188,-4.65816 -0.75494,-4.92959 -2.03585,-8.76379 -1.7328,-5.18684 -3.22078,-7.92263 -6.19668,-11.39321 -1.0948,-1.27679 -2.08171,-2.37482 -2.19313,-2.44007 -0.11142,-0.0652 -1.62519,-0.65193 -3.36394,-1.30372 -3.06853,-1.15028 -3.28347,-1.20306 -7.31996,-1.79737 -3.82792,-0.56361 -4.50024,-0.61259 -8.45519,-0.61593 -4.00401,-0.003 -4.58162,0.0389 -8.482144,0.62117 -4.066579,0.60703 -4.27899,0.65957 -7.473054,1.84841 l -3.287507,1.22363 -2.036327,2.39265 c -3.064173,3.60037 -4.599991,6.4014 -6.290071,11.47189 -1.224117,3.67254 -1.329174,4.11941 -1.991304,8.47035 l -0.699008,4.59328 -0.117167,19.41964 -0.117167,19.41964 -6.924021,0 -6.92402,0 0.07754,-8.34821 z"
       id="path6049"
       inkscape:connector-curvature="0"
       inkscape:export-filename="/home/jussil/Home/Programming/Projects/fleetingpm/sourceforge-git/fleetingpm/data/icons/fleetingpm.png"
       inkscape:export-xdpi="29.879999"
       inkscape:export-ydpi="29.879999" />
    <path
       style="fill:url(#linearGradient6205);fill-opacity:1;fill-rule:nonzero;stroke:#000000;stroke-opacity:1"
       d="m 60.906559,378.09327 c 0.04265,-4.59152 0.115207,-13.41072 0.161239,-19.59822 l 0.08369,-11.25 0.726971,-4.10714 c 0.754292,-4.2615 1.930955,-8.66119 4.137117,-15.46918 0.861451,-2.65836 1.409911,-3.96689 2.731187,-6.51615 1.539729,-2.97074 1.799083,-3.35573 3.77624,-5.60545 1.410041,-1.60442 3.070722,-3.21951 4.945228,-4.80948 l 2.822266,-2.39386 4.524262,-1.475 c 4.478351,-1.46003 4.582591,-1.48418 10.272259,-2.37973 l 5.748002,-0.90472 4.38478,0 4.38478,0 5.67982,0.9005 c 5.59831,0.88758 5.74497,0.92173 10.22062,2.38004 l 4.5408,1.47954 2.80941,2.37852 c 1.88056,1.59214 3.51493,3.18158 4.94333,4.80746 2.04806,2.33122 2.20247,2.56495 3.83815,5.8096 1.35061,2.67918 1.9386,4.10575 2.83365,6.875 2.23633,6.9191 3.12732,10.28227 3.92982,14.83362 l 0.7714,4.375 0.13039,19.50893 0.13039,19.50893 -6.99141,0 -6.99141,0 0,-19.16976 0,-19.16977 -0.71399,-4.80704 c -0.69188,-4.65816 -0.75494,-4.92959 -2.03585,-8.76379 -1.7328,-5.18684 -3.22078,-7.92263 -6.19668,-11.39321 -1.0948,-1.27679 -2.08171,-2.37482 -2.19313,-2.44007 -0.11142,-0.0652 -1.62519,-0.65193 -3.36394,-1.30372 -3.06853,-1.15028 -3.28347,-1.20306 -7.31996,-1.79737 -3.82792,-0.56361 -4.50024,-0.61259 -8.45519,-0.61593 -4.00401,-0.003 -4.58162,0.0389 -8.482152,0.62117 -4.06657,0.60703 -4.27899,0.65957 -7.473048,1.84841 l -3.287505,1.22363 -2.036327,2.39265 c -3.064173,3.60037 -4.599991,6.4014 -6.290071,11.47189 -1.224117,3.67254 -1.329174,4.11941 -1.991304,8.47035 l -0.699008,4.59328 -0.117167,19.41964 -0.117167,19.41964 -6.924021,0 -6.92402,0 0.07754,-8.34821 z"
       id="path6049-2"
       inkscape:connector-curvature="0"
       inkscape:export-filename="/home/jussil/Home/Programming/Projects/fleetingpm/sourceforge-git/fleetingpm/data/icons/fleetingpm.png"
       inkscape:export-xdpi="29.879999"
       inkscape:export-ydpi="29.879999" />
    <path
       sodipodi:type="star"
       style="opacity:0.90234375000000000;fill:#ffff00;fill-opacity:1;fill-rule:nonzero;stroke:#000000;stroke-width:1;stroke-linecap:square;stroke-linejoin:round;stroke-miterlimit:4;stroke-opacity:1;stroke-dasharray:none"
       id="path6207"
       sodipodi:sides="5"
       sodipodi:cx="166.07143"
       sodipodi:cy="313.79074"
       sodipodi:r1="25.143085"
       sodipodi:r2="12.571543"
       sodipodi:arg1="0.93155656"
       sodipodi:arg2="1.5598751"
       inkscape:flatsided="false"
       inkscape:rounded="0"
       inkscape:randomized="0"
       d="m 181.07143,333.96931 -14.86271,-7.60778 -14.693,7.93058 2.6426,-16.48621 -12.08282,-11.52319 16.49593,-2.58125 7.22541,-15.05231 7.55244,14.89091 16.54836,2.22035 -11.82825,11.78435 z"
       inkscape:transform-center-x="0.12203412"
       inkscape:transform-center-y="-3.5122522"
       transform="matrix(1.4381457,0,0,1.5138376,-83.619164,-138.79531)"
       inkscape:export-filename="/home/jussil/Home/Programming/Projects/fleetingpm/sourceforge-git/fleetingpm/data/icons/fleetingpm.png"
       inkscape:export-xdpi="29.879999"
       inkscape:export-ydpi="29.879999" />
    <path
       sodipodi:type="star"
       style="opacity:0.89453125;fill:#ffff00;fill-opacity:1;fill-rule:nonzero;stroke:#000000;stroke-width:1;stroke-linecap:square;stroke-linejoin:round;stroke-miterlimit:4;stroke-opacity:1;stroke-dasharray:none"
       id="path6209"
       sodipodi:sides="5"
       sodipodi:cx="183.57143"
       sodipodi:cy="385.75504"
       sodipodi:r1="15.428613"
       sodipodi:r2="7.7143064"
       sodipodi:arg1="0.92498041"
       sodipodi:arg2="1.5532989"
       inkscape:flatsided="false"
       inkscape:rounded="0"
       inkscape:randomized="0"
       d="m 192.85714,398.07646 -9.15074,-4.6083 -8.98391,4.92565 1.55503,-10.12692 -7.46075,-7.02209 10.1118,-1.65048 4.37291,-9.26554 4.69441,9.10687 10.16335,1.29568 -7.21049,7.27882 z"
       inkscape:transform-center-x="0.11034134"
       inkscape:transform-center-y="-1.9260789"
       transform="matrix(1.3227205,0,0,1.3819494,-77.697487,-119.12799)"
       inkscape:export-filename="/home/jussil/Home/Programming/Projects/fleetingpm/sourceforge-git/fleetingpm/data/icons/fleetingpm.png"
       inkscape:export-xdpi="29.879999"
       inkscape:export-ydpi="29.879999" />
    <path
       sodipodi:type="star"
       style="fill:#ffff00;fill-opacity:1;fill-rule:nonzero;stroke:#000000;stroke-width:1;stroke-linecap:square;stroke-linejoin:round;stroke-miterlimit:4;stroke-opacity:1;stroke-dasharray:none;opacity:0.90625000000000000"
       id="path6211"
       sodipodi:sides="5"
       sodipodi:cx="34.642857"
       sodipodi:cy="345.75504"
       sodipodi:r1="17.857143"
       sodipodi:r2="8.9285717"
       sodipodi:arg1="0.92729522"
       sodipodi:arg2="1.5556137"
       inkscape:flatsided="false"
       inkscape:rounded="0"
       inkscape:randomized="0"
       d="m 45.357143,360.04075 -10.578732,-5.35817 -10.41118,5.67688 1.826916,-11.71674 -8.616262,-8.14737 11.707828,-1.88317 5.086037,-10.71223 5.408919,10.55288 11.759606,1.52684 -8.364932,8.40521 z"
       inkscape:transform-center-x="0.10765193"
       inkscape:transform-center-y="-2.2083348"
       transform="matrix(1.2849822,0,0,1.3586919,13.186991,-92.632975)"
       inkscape:export-filename="/home/jussil/Home/Programming/Projects/fleetingpm/sourceforge-git/fleetingpm/data/icons/fleetingpm.png"
       inkscape:export-xdpi="29.879999"
       inkscape:export-ydpi="29.879999" />
  </g>
</svg>
